<svg width="703" height="443" viewBox="0 0 703 443" fill="none" xmlns="http://www.w3.org/2000/svg">
<g clip-path="url(#clip0)">
<path d="M69.8952 351.314C69.8952 351.314 26.0845 418.942 130.379 427.149C234.673 435.356 262.649 425.094 280.455 423.046C298.261 420.997 350.066 383.035 437.822 430.229C497.25 462.192 560.261 425.107 589.511 402.522C618.761 379.936 636.567 355.322 622.576 351.218C608.584 347.115 69.8952 351.314 69.8952 351.314Z" fill="#F5F5FC"/>
<path d="M68.0903 353.331C68.0903 353.331 5.87207 261.536 42.6167 225.936C79.7966 189.914 30.8336 144.826 47.2634 92.3002C61.1651 47.8466 146.021 -25.0692 223.863 8.62954C331.345 55.1637 330.839 65.4001 396.975 53.9474C463.11 42.4947 539.806 -19.8454 577.056 58.5951C599.131 105.078 659.82 115.276 674.649 158.533C689.479 201.789 667.142 255.929 654.891 267.765C611.458 309.767 626.288 355.117 626.288 355.117L68.0903 353.331Z" fill="#F8F8FF" fill-opacity="0.3"/>
<path d="M364.64 142.458C374.87 142.458 383.163 134.163 383.163 123.931C383.163 113.699 374.87 105.405 364.64 105.405C354.41 105.405 346.117 113.699 346.117 123.931C346.117 134.163 354.41 142.458 364.64 142.458Z" fill="white"/>
<path d="M384.782 139.871C392.339 139.871 398.466 133.744 398.466 126.185C398.466 118.626 392.339 112.498 384.782 112.498C377.224 112.498 371.098 118.626 371.098 126.185C371.098 133.744 377.224 139.871 384.782 139.871Z" fill="white"/>
<path d="M517.456 133.911C526.819 133.911 534.41 126.319 534.41 116.953C534.41 107.588 526.819 99.9951 517.456 99.9951C508.092 99.9951 500.501 107.588 500.501 116.953C500.501 126.319 508.092 133.911 517.456 133.911Z" fill="white"/>
<path d="M498.504 131.261C505.422 131.261 511.03 125.652 511.03 118.733C511.03 111.814 505.422 106.205 498.504 106.205C491.586 106.205 485.978 111.814 485.978 118.733C485.978 125.652 491.586 131.261 498.504 131.261Z" fill="white"/>
<path d="M539.729 132.862C546.647 132.862 552.255 127.253 552.255 120.333C552.255 113.414 546.647 107.805 539.729 107.805C532.811 107.805 527.203 113.414 527.203 120.333C527.203 127.253 532.811 132.862 539.729 132.862Z" fill="white"/>
<path d="M106.915 143.642C116.279 143.642 123.87 136.05 123.87 126.684C123.87 117.318 116.279 109.726 106.915 109.726C97.5513 109.726 89.9604 117.318 89.9604 126.684C89.9604 136.05 97.5513 143.642 106.915 143.642Z" fill="white"/>
<path d="M88.4756 137.151C95.3933 137.151 101.001 131.542 101.001 124.623C101.001 117.703 95.3933 112.094 88.4756 112.094C81.5579 112.094 75.95 117.703 75.95 124.623C75.95 131.542 81.5579 137.151 88.4756 137.151Z" fill="white"/>
<path d="M112.138 94.3296L112.778 351.564H316.95L316.31 94.9697L112.138 94.3296Z" fill="#E9EDFA"/>
<path d="M103.177 70.6431L322.711 71.2833L323.351 94.9697H103.177V70.6431Z" fill="#BAC6F2"/>
<path d="M322.711 142.343H103.177V149.384H322.711V142.343Z" fill="#BAC6F2"/>
<path d="M315.67 148.744H112.778V155.786H315.67V148.744Z" fill="#BAC6F2"/>
<path d="M315.03 93.0492H112.138V100.091H315.03V93.0492Z" fill="#BAC6F2"/>
<path d="M323.991 351.039H104.457V358.081H323.991V351.039Z" fill="#BAC6F2"/>
<path d="M132.619 108.413L125.579 116.095V126.978L131.979 133.38L296.469 134.02L302.87 128.259V116.095L295.189 108.413H132.619Z" fill="#BAC6F2"/>
<path d="M112.138 171.791H124.939V180.113H112.778L112.138 171.791Z" fill="#B1C1F2"/>
<path d="M112.138 255.013H119.818V263.335H112.778L112.138 255.013Z" fill="#B1C1F2"/>
<path d="M201.743 242.85H181.262V250.532H201.743V242.85Z" fill="#B1C1F2"/>
<path d="M189.583 255.653H169.101V263.335H189.583V255.653Z" fill="#B1C1F2"/>
<path d="M179.694 208.485H159.213V216.167H179.694V208.485Z" fill="#B1C1F2"/>
<path d="M226.705 256.293H206.224V263.976H226.705V256.293Z" fill="#B1C1F2"/>
<path d="M190.434 164.249H169.953V171.931H190.434V164.249Z" fill="#B1C1F2"/>
<path d="M305.43 251.812H284.948V259.494H305.43V251.812Z" fill="#B1C1F2"/>
<path d="M308.63 157.707H288.149V165.389H308.63V157.707Z" fill="#B1C1F2"/>
<path d="M302.019 277.413H267.321C265.427 277.413 263.891 278.948 263.891 280.843V349.626C263.891 351.52 265.427 353.056 267.321 353.056H302.019C303.913 353.056 305.449 351.52 305.449 349.626V280.843C305.449 278.948 303.913 277.413 302.019 277.413Z" fill="#BAC6F2"/>
<path d="M298.121 285.933H271.302C269.408 285.933 267.872 287.469 267.872 289.363V294.628C267.872 296.523 269.408 298.058 271.302 298.058H298.121C300.015 298.058 301.551 296.523 301.551 294.628V289.363C301.551 287.469 300.015 285.933 298.121 285.933Z" fill="white"/>
<path d="M124.011 197.442H128.19L174.862 197.397C174.862 197.397 177.422 183.314 167.181 174.991C156.941 166.669 146.335 166.669 138.655 170.51C130.974 174.351 123.723 180.113 124.011 197.442Z" fill="#BAC6F2"/>
<path d="M128.184 197.442L127.832 231.57H171.265V196.578L127.486 195.874L128.184 197.442Z" fill="#BAC6F2"/>
<path d="M127.832 231.57L124.977 231.365V237.139H174.074L173.831 231.365L127.832 231.57Z" fill="#BAC6F2"/>
<path d="M148.402 199.35H133.24V213.312H148.402V199.35Z" fill="white"/>
<path d="M165.978 199.19H151.487V213.152H165.978V199.19Z" fill="white"/>
<path d="M166.183 216.763H151.411V230.725H166.183V216.763Z" fill="white"/>
<path d="M148.543 216.756H133.381V230.719H148.543V216.756Z" fill="white"/>
<path d="M130.136 176.643L128.356 197.538L137.035 197.257L138.802 170.478L133.31 173.698L130.801 175.939" fill="#B1C1F2"/>
<path d="M169.473 177.078L171.105 197.545L163.155 197.269L161.6 171.266L166.503 174.46L168.864 176.393" fill="#B1C1F2"/>
<path d="M141.58 176.233L140.396 197.34L147.967 197.468L149.663 168.071L146.386 168.161L142.431 168.903" fill="#B1C1F2"/>
<path d="M159.373 176.15L160.442 197.257L153.632 197.385L152.191 168.186L155.763 168.935L158.745 169.889" fill="#B1C1F2"/>
<path d="M188.853 197.89H193.032L239.704 197.846C239.704 197.846 242.264 183.762 232.024 175.44C221.783 167.117 211.177 167.117 203.497 170.958C195.817 174.799 188.571 180.58 188.853 197.89Z" fill="#BAC6F2"/>
<path d="M193.032 197.884L192.68 232.018H236.107V197.02L192.328 196.316L193.032 197.884Z" fill="#BAC6F2"/>
<path d="M192.68 232.018L189.826 231.807V237.588H238.917L238.68 231.807L192.68 232.018Z" fill="#BAC6F2"/>
<path d="M213.251 199.792H198.089V213.754H213.251V199.792Z" fill="white"/>
<path d="M230.82 199.632H216.33V213.594H230.82V199.632Z" fill="white"/>
<path d="M231.025 217.204H216.253V231.167H231.025V217.204Z" fill="white"/>
<path d="M213.392 217.198H198.229V231.16H213.392V217.198Z" fill="white"/>
<path d="M194.978 177.085L193.199 197.98L201.878 197.705L203.644 170.926L198.159 174.146L195.644 176.387" fill="#B1C1F2"/>
<path d="M234.315 177.52L235.947 197.993L227.998 197.718L226.442 171.707L231.345 174.902L233.707 176.835" fill="#B1C1F2"/>
<path d="M206.422 176.675L205.238 197.782L212.81 197.91L214.506 168.513L211.229 168.602L207.273 169.351" fill="#B1C1F2"/>
<path d="M224.221 176.598L225.284 197.698L218.48 197.826L217.034 168.634L220.612 169.377L223.588 170.331" fill="#B1C1F2"/>
<path d="M252.812 197.89H256.992L303.663 197.846C303.663 197.846 306.223 183.762 295.983 175.44C285.742 167.117 275.137 167.117 267.456 170.958C259.776 174.799 252.524 180.58 252.812 197.89Z" fill="#BAC6F2"/>
<path d="M256.985 197.884L256.633 232.018H300.066V197.02L256.281 196.316L256.985 197.884Z" fill="#BAC6F2"/>
<path d="M256.633 232.018L253.779 231.807V237.588H302.876L302.633 231.807L256.633 232.018Z" fill="#BAC6F2"/>
<path d="M277.204 199.792H262.041V213.754H277.204V199.792Z" fill="white"/>
<path d="M294.773 199.632H280.283V213.594H294.773V199.632Z" fill="white"/>
<path d="M294.984 217.204H280.212V231.167H294.984V217.204Z" fill="white"/>
<path d="M277.345 217.198H262.182V231.16H277.345V217.198Z" fill="white"/>
<path d="M258.937 177.085L257.158 197.98L265.837 197.705L267.597 170.926L262.112 174.146L259.596 176.387" fill="#B1C1F2"/>
<path d="M298.274 177.52L299.906 197.993L291.95 197.718L290.402 171.707L295.304 174.902L297.666 176.835" fill="#B1C1F2"/>
<path d="M270.381 176.675L269.197 197.782L276.769 197.91L278.458 168.513L275.188 168.602L271.232 169.351" fill="#B1C1F2"/>
<path d="M288.174 176.598L289.243 197.698L282.433 197.826L280.993 168.634L284.564 169.377L287.541 170.331" fill="#B1C1F2"/>
<path d="M124.158 295.062H135.224L258.752 295.018C258.752 295.018 268.781 279.449 241.675 270.947C214.57 262.445 169.991 264.865 149.683 268.79C129.374 272.714 123.402 277.387 124.158 295.062Z" fill="#BAC6F2"/>
<path d="M125.777 295.376L124.695 351.154H258.393V293.968L123.614 292.815L125.777 295.376Z" fill="#BAC6F2"/>
<path d="M250.06 296.131H132.261V324.536H250.06V296.131Z" fill="white"/>
<path d="M207.728 329.113H173.799V343.075H207.728V329.113Z" fill="white"/>
<path d="M166.996 329.356H133.067V343.319H166.996V329.356Z" fill="white"/>
<path d="M248.946 329.356H215.018V343.319H248.946V329.356Z" fill="white"/>
<path d="M136.664 273.2L134.245 293.372L145.772 293.11L147.82 268.668L141.061 270.288L137.323 271.824" fill="#B1C1F2"/>
<path d="M155.686 273.405L153.747 293.18L165.312 293.033L167.418 266.242L161.773 266.908L156.672 267.381" fill="#B1C1F2"/>
<path d="M241.803 273.053L243.704 293.225L234.641 292.963L233.035 268.521L238.347 270.14L241.285 271.677" fill="#B1C1F2"/>
<path d="M226.762 273.258L228.375 293.033L218.743 292.886L216.995 266.094L221.693 266.76L225.937 267.234" fill="#B1C1F2"/>
<path d="M209.078 273.104L210.691 292.879L201.058 292.739L199.266 265.313L203.83 265.538L208.176 265.762" fill="#B1C1F2"/>
<path d="M188.136 273.841L189.749 293.616L180.116 293.475L178.324 266.056L183.125 265.89L187.637 265.794" fill="#B1C1F2"/>
<path d="M332.804 228.247L332.196 356.397L548.702 356.98V227.057L332.804 228.247Z" fill="#E9EDFA"/>
<path d="M550.533 350.431H330.999V357.473H550.533V350.431Z" fill="#BAC6F2"/>
<path d="M560.94 228.126H320.835V236.614H560.94V228.126Z" fill="#BAC6F2"/>
<path d="M324.631 229.509C324.631 229.509 327.191 191.354 352.153 190.624C372.711 190.023 478.08 190.541 514.377 190.874C535.754 191.073 554.059 206.878 556.664 228.1C556.72 228.565 556.771 229.035 556.818 229.509H324.631Z" fill="#BAC6F2"/>
<path d="M535.498 285.901H548.299V294.224H536.138L535.498 285.901Z" fill="#B1C1F2"/>
<path d="M540.779 251.14H548.459V259.462H541.419L540.779 251.14Z" fill="#B1C1F2"/>
<path d="M362.649 313.269H342.168V320.951H362.649V313.269Z" fill="#B1C1F2"/>
<path d="M355.404 279.525H334.923V287.207H355.404V279.525Z" fill="#B1C1F2"/>
<path d="M368.128 252.196H347.647V259.878H368.128V252.196Z" fill="#B1C1F2"/>
<path d="M440.958 245.462H420.477V253.144H440.958V245.462Z" fill="#B1C1F2"/>
<path d="M544.299 271.011H523.818V278.693H544.299V271.011Z" fill="#B1C1F2"/>
<path d="M533.22 330.336H512.739V338.018H533.22V330.336Z" fill="#B1C1F2"/>
<path d="M484.596 239.322H464.115V247.004H484.596V239.322Z" fill="#B1C1F2"/>
<path d="M372.109 294.243H383.175L506.703 294.198C506.703 294.198 516.732 278.629 489.627 270.128C462.521 261.626 417.942 264.046 397.634 267.97C377.325 271.894 371.354 276.568 372.109 294.243Z" fill="#BAC6F2"/>
<path d="M373.728 294.557L372.647 350.335H506.344V293.148L371.565 291.996L373.728 294.557Z" fill="#BAC6F2"/>
<path d="M498.011 295.312H421.75V323.716H498.011V295.312Z" fill="white"/>
<path d="M455.679 328.294H421.75V342.256H455.679V328.294Z" fill="white"/>
<path d="M414.947 295.843H381.018V342.499H414.947V295.843Z" fill="white"/>
<path d="M496.904 328.537H462.975V342.499H496.904V328.537Z" fill="white"/>
<path d="M384.615 272.381L382.202 292.553L393.73 292.29L395.771 267.849L389.019 269.468L385.281 271.005" fill="#B1C1F2"/>
<path d="M403.637 272.586L401.704 292.361L413.27 292.214L415.369 265.422L409.731 266.088L404.629 266.562" fill="#B1C1F2"/>
<path d="M489.761 272.234L491.656 292.406L482.599 292.143L480.993 267.701L486.298 269.321L489.236 270.857" fill="#B1C1F2"/>
<path d="M474.72 272.439L476.327 292.214L466.694 292.066L464.947 265.275L469.645 265.941L473.895 266.415" fill="#B1C1F2"/>
<path d="M457.029 272.285L458.642 292.06L449.01 291.919L447.218 264.5L451.781 264.718L456.127 264.942" fill="#B1C1F2"/>
<path d="M436.094 273.028L437.7 292.796L428.068 292.655L426.276 265.237L431.076 265.07L435.588 264.981" fill="#B1C1F2"/>
<path d="M573.126 352.124C573.126 350.475 571.789 349.138 570.14 349.138C568.491 349.138 567.155 350.475 567.155 352.124V358.354C567.155 360.003 568.491 361.339 570.14 361.339C571.789 361.339 573.126 360.003 573.126 358.354V352.124Z" fill="white"/>
<path d="M592.327 352.124C592.327 350.475 590.991 349.138 589.342 349.138C587.693 349.138 586.356 350.475 586.356 352.124V358.354C586.356 360.003 587.693 361.339 589.342 361.339C590.991 361.339 592.327 360.003 592.327 358.354V352.124Z" fill="white"/>
<path d="M564.825 304.78C564.825 304.78 560.191 352.889 561.074 353.549C561.957 354.208 597.256 354.65 598.139 353.99C599.022 353.331 595.489 305.222 594.83 304.998C594.171 304.774 565.926 304.121 564.825 304.78Z" fill="#BAC6F2"/>
<path d="M590.084 316.918H570.665C569.995 316.918 569.452 317.461 569.452 318.131C569.452 318.801 569.995 319.344 570.665 319.344H590.084C590.754 319.344 591.297 318.801 591.297 318.131C591.297 317.461 590.754 316.918 590.084 316.918Z" fill="white"/>
<path d="M592.292 324.638H568.022C567.352 324.638 566.809 325.181 566.809 325.851C566.809 326.521 567.352 327.065 568.022 327.065H592.292C592.962 327.065 593.505 326.521 593.505 325.851C593.505 325.181 592.962 324.638 592.292 324.638Z" fill="white"/>
<path d="M321 541C445.816 541 547 439.816 547 315C547 190.184 445.816 89 321 89C196.184 89 95 190.184 95 315C95 439.816 196.184 541 321 541Z" stroke="url(#paint0_linear)" stroke-width="10" stroke-dasharray="14 14"/>
<path d="M122 354H95V420H122V354Z" fill="#F5F5FC"/>
<path d="M534.757 402.544L512.112 387.839L487.604 425.579L510.248 440.284L534.757 402.544Z" fill="#F5F5FC"/>
<path d="M537.598 428.085L494.952 327.951C477.818 287.71 507.252 243 550.88 243C593.247 243 621.83 286.445 605.191 325.492L561.501 428.085C559.457 432.886 554.754 436 549.549 436C544.345 436 539.642 432.886 537.598 428.085Z" fill="url(#paint1_linear)"/>
<path d="M550 337C568.225 337 583 322.225 583 304C583 285.775 568.225 271 550 271C531.775 271 517 285.775 517 304C517 322.225 531.775 337 550 337Z" fill="white"/>
<path d="M472 329H447V337H472V329Z" fill="#EFEFEF"/>
<path d="M657 329H632V337H657V329Z" fill="#EFEFEF"/>
<path d="M610.197 384.309L627.584 401.684L622.077 407.187L604.691 389.812L610.197 384.309Z" fill="#EFEFEF"/>
<path d="M475.144 404.214L492.53 386.838L498.037 392.342L480.651 409.717L475.144 404.214Z" fill="#EFEFEF"/>
<path d="M464.672 250.302L484.588 264.8L479.994 271.104L460.078 256.606L464.672 250.302Z" fill="#EFEFEF"/>
<path d="M555.5 205.5V230.5H547.5V205.5H555.5Z" fill="#EFEFEF"/>
<path d="M636.015 257.242L614.721 269.528L610.827 262.788L632.121 250.502L636.015 257.242Z" fill="#EFEFEF"/>
<path d="M504.104 404.133L495.188 406.133C495.188 406.133 493.026 413.067 492.013 416.8C491.946 417 491.743 417.667 491.608 418.067C491.473 418.733 491.405 419.333 491.405 420C491.608 423.333 492.891 426.2 495.863 427.667C499.173 429.333 501.739 430.867 505.252 427.667C508.764 424.467 509.372 422.467 507.886 416.933C506.4 411.4 504.104 404.2 504.104 404.133Z" fill="#4B44BE"/>
<path d="M555.842 415.667C549.831 413.8 547.264 406.467 547.264 406.467L535.174 405.867C535.174 405.867 534.904 413.333 534.566 417.4C534.161 422.8 535.174 425.2 538.821 424.867C543.684 424.467 563.542 426.2 566.649 424.267C570.837 421.8 561.516 417.4 555.842 415.667Z" fill="#4B44BE"/>
<path d="M486.273 233.068C486.273 233.068 481.767 239.294 480.355 256.078C478.942 272.862 482.103 304.739 483.583 310.897C485.063 317.056 490.981 374.65 492.461 378.846C493.941 383.042 495.958 405.985 495.958 405.985L505.509 406.256C505.509 406.256 508.333 376.342 508.333 368.424C508.333 360.505 512.301 285.586 512.032 280.104C511.763 274.622 513.041 276.382 513.041 276.382C513.041 276.382 521.381 303.182 523.869 307.649C526.358 312.116 530.797 320.846 530.797 320.846C530.797 320.846 531.806 348.932 533.016 365.175C534.227 381.418 535.505 407 535.505 407L548.351 406.729C548.351 406.729 551.31 363.957 551.31 354.956C551.31 345.954 554 324.365 554 321.861C554 319.357 545.66 275.637 545.66 275.637L539.809 233L486.273 233.068Z" fill="url(#paint2_linear)"/>
<path d="M501.429 91.264C497.062 92.8933 491.486 114.821 491.486 114.821L491.419 114.753L489 117.197L490.008 121.813L494.24 194.114L516.142 189.362L535.289 168.86L547.248 174.562C547.248 174.562 548.188 200.835 548.323 202.26C548.457 203.686 550.473 243.4 550.473 245.98C550.54 248.764 562.23 261.255 564.178 259.897C569.956 255.824 560.349 248.288 558.064 246.455C556.721 245.369 553.832 208.438 553.63 204.093C553.429 199.749 560.281 188.683 548.39 174.087C539.723 163.429 535.02 136.07 527.765 104.977C523.935 88.82 521.651 84 517.889 84C514.462 84 509.76 88.1412 501.429 91.264Z" fill="url(#paint3_linear)"/>
<path d="M497.641 152.809C497.574 153.012 489.288 156.928 485.717 161.318C482.147 165.707 479.25 172.054 479.25 172.054C479.25 172.054 473.996 184.478 470.358 193.662C468.405 198.591 462.005 218.781 469.685 219.524C476.96 220.199 493.06 203.048 495.553 199.806L498.315 193.594C498.517 192.784 494.003 184.411 494.138 183.668C494.273 182.453 504.782 176.308 506.398 179.954C506.937 181.17 508.352 184.681 508.756 185.761C509.767 188.395 494.475 193.527 494.475 195.89C494.475 198.794 493.195 209.53 491.107 214.797C489.018 220.064 485.852 232.556 485.852 232.556L539.609 232.691C539.609 232.691 537.791 208.72 538.532 200.752C538.532 200.752 540.822 174.62 542.169 172.054C543.517 169.488 545.807 204.331 545.47 211.488C545.201 216.485 549.714 246.466 550.994 247.546C553.082 249.167 558 245.926 558 245.926C558 245.926 557.798 213.041 557.596 207.572C557.394 202.102 557.731 157.874 550.522 149.906C543.314 141.938 541.361 142.141 535.365 144.234C529.37 146.327 526.406 148.353 518.255 149.703C513.27 150.581 508.083 149.906 503.434 147.88C504.714 143.221 502.02 151.121 502.357 148.961" fill="url(#paint4_linear)"/>
<path d="M505.485 79.2704C505.485 79.2704 494.715 79.6759 491.667 90.1526C488.619 100.629 488.145 115.364 488.077 117.662C487.941 120.096 489.228 136.588 487.874 141.184C486.654 145.24 483.2 152.742 481.1 157.947C480.287 159.974 479.677 162.137 479.271 164.3L479 166.058C479.542 167.883 481.506 168.964 483.403 168.356C483.538 168.288 483.674 168.288 483.742 168.221C484.825 167.747 485.842 167.207 486.858 166.598C490.109 164.638 494.241 159.434 497.492 157.812C500.947 156.122 504.876 148.281 505.418 147.673C505.96 147.065 505.756 145.104 505.824 143.212C506.163 133.411 504.334 124.421 502.031 119.69C499.728 114.959 494.444 105.699 498.102 100.359C501.76 95.0192 509.414 90.7609 509.753 89.4767C510.092 88.1924 510.295 94.6136 514.359 96.9117C518.423 99.2098 524.113 105.361 524.113 106.712C524.113 108.064 525.468 112.458 521.607 120.096C517.746 127.733 514.698 137.467 520.049 144.766C525.4 152.066 538.88 162.205 539.829 164.503C540.777 166.801 539.829 177.008 539.49 182.753C539.151 188.498 550.396 172.952 549.989 165.449C549.583 157.947 550.938 154.702 543.283 143.279C535.629 131.856 530.616 112.12 530.413 107.321C530.21 102.522 527.907 89.2739 523.301 85.4212C519.372 82.1768 518.491 79 510.295 79C508.669 79 507.043 79.1352 505.485 79.2704Z" fill="url(#paint5_linear)"/>
<g opacity="0.07">
<g opacity="0.07">
<path opacity="0.07" d="M501.575 179.222C499.935 179.9 498.363 180.644 496.86 181.525L495.22 182.337C495.22 182.337 477.863 200.281 478.615 199.333C481.963 195.203 492.35 173.264 495.835 168.185C499.525 162.904 501.575 165.003 505.607 179.019" fill="black"/>
</g>
</g>
<g opacity="0.07">
<path opacity="0.07" d="M500.755 405.045C500.823 405.248 500.823 405.452 500.823 405.655C500.892 407.144 500.823 410.869 499.183 413.239C497.133 416.353 501.985 423.192 501.985 424.885C501.985 426.578 499.73 428.135 498.158 427.661C496.587 427.187 490.027 423.531 492.623 415.676C493.648 412.494 494.263 409.718 494.878 407.957C495.22 407.077 495.493 406.196 495.767 405.316C495.835 404.91 495.835 404.504 495.835 404.097C495.767 403.556 495.767 402.946 495.698 402.337C495.357 399.29 482.373 304.288 481.895 300.632C481.485 297.382 479.572 277.271 479.777 265.489C479.64 264.473 479.64 263.457 479.708 262.509C479.708 262.239 479.845 261.087 479.777 260.613C479.845 259.53 479.913 258.447 480.05 257.363C479.845 256.483 479.982 256.483 480.05 255.061C480.118 253.639 480.05 252.826 480.187 251.946C481.485 243.956 484.423 234.883 485.858 232.309L486.268 230.887C486.268 230.887 489.548 218.835 490.642 216.6C491.598 214.569 494.332 203.938 494.058 201.703C493.922 200.484 498.295 195.744 498.295 195.744L499.183 195C499.593 194.932 500.072 195 500.482 195.135C501.438 195.541 505.128 192.359 505.743 194.39C510.117 208.271 511.893 214.162 504.172 222.423C496.45 230.684 503.557 238.065 503.693 243.888C504.035 258.244 496.997 256.686 496.587 265.624C496.177 274.562 498.158 280.995 498.295 285.667C498.637 301.038 498.432 304.085 497.612 310.112C496.792 316.138 492.623 327.582 497.27 350.062C501.917 372.543 501.233 374.574 500.755 387.305C500.277 400.035 500.755 405.045 500.755 405.045Z" fill="black"/>
</g>
<path d="M493.58 172.79L493.717 172.722C494.263 172.451 497.475 170.826 499.73 169.946C502.258 168.93 505.333 177.462 506.085 179.155C506.153 179.29 506.153 179.29 505.607 179.358C503.762 179.561 501.917 179.9 500.14 180.374C497.543 180.983 494.605 183.014 494.468 183.082C494.332 183.15 493.58 181.525 492.077 177.733C491.735 176.852 490.983 174.55 491.667 174.009L493.58 172.79Z" fill="#EFEFEF"/>
<path opacity="0.07" d="M513.192 127.49C514.832 128.099 516.745 127.693 517.975 126.406C520.162 124.239 517.155 131.756 517.633 133.448C518.112 135.141 513.192 127.49 513.192 127.49Z" fill="black"/>
<path d="M498.363 192.63C498.363 192.63 508.682 185.926 508.818 186.197C509.092 186.806 509.98 189.244 509.98 189.244C509.98 189.244 510.8 190.801 510.527 191.275C510.253 191.749 500.482 195.88 500.482 195.88C500.072 195.812 499.73 195.609 499.593 195.27C499.115 194.458 498.705 193.578 498.363 192.63Z" fill="#EFEFEF"/>
<path d="M234.276 249.769C237.974 245.125 239.947 240.543 238.682 239.536C237.417 238.528 233.393 241.477 229.694 246.121C225.996 250.766 224.023 255.348 225.289 256.355C226.554 257.362 230.577 254.414 234.276 249.769Z" fill="url(#paint6_linear)"/>
<path d="M238.392 239.345L205.249 239C205.598 246.783 207.794 257.484 209.276 266.891C211.258 279.48 208.304 283.872 208.79 290.789C208.79 290.789 210.981 303.275 211.268 307.697C212.39 325.1 214.45 336.317 213.153 347.495C213.095 348.575 213.109 350.302 211.919 351.527C209.942 353.561 205.253 355.633 194.39 355.774C172.664 356.066 117.202 364.306 121.394 330.359C125.587 296.412 144.019 282.894 144.019 282.894L96.9425 281.921C96.9425 281.921 101.407 304.005 68.0648 310.265C34.7223 316.525 12.753 343.866 12 362H252C252 362 243.255 308.942 224.993 288.498C206.73 268.054 238.392 239.345 238.392 239.345Z" fill="url(#paint7_linear)"/>
<path d="M68 390C86.7777 390 102 374.778 102 356C102 337.222 86.7777 322 68 322C49.2223 322 34 337.222 34 356C34 374.778 49.2223 390 68 390Z" fill="url(#paint8_linear)"/>
<path d="M68 375C77.9411 375 86 366.717 86 356.5C86 346.283 77.9411 338 68 338C58.0589 338 50 346.283 50 356.5C50 366.717 58.0589 375 68 375Z" fill="white"/>
<path d="M259 390C277.778 390 293 374.778 293 356C293 337.222 277.778 322 259 322C240.222 322 225 337.222 225 356C225 374.778 240.222 390 259 390Z" fill="url(#paint9_linear)"/>
<path d="M259 375C268.941 375 277 366.717 277 356.5C277 346.283 268.941 338 259 338C249.059 338 241 346.283 241 356.5C241 366.717 249.059 375 259 375Z" fill="white"/>
<path d="M77 287H152.676C152.676 287 154.551 274.543 149.285 274.167C144.019 273.791 93.0885 274.167 93.0885 274.167C93.0885 274.167 82.2466 274.919 77 287Z" fill="url(#paint10_linear)"/>
<path d="M205 245C208.314 245 211 242.314 211 239C211 235.686 208.314 233 205 233C201.686 233 199 235.686 199 239C199 242.314 201.686 245 205 245Z" fill="white"/>
<path d="M101.417 361.971L115.575 362C115.575 362 129.112 334.715 113.418 316.335C109.093 311.273 102.751 308.621 96.0597 308.216C75.943 307.02 61.8627 310.897 47.9958 317.232C36.4952 322.622 26.6573 330.978 19.5056 341.431C12.3685 352.101 12 362 12 362L101.417 361.971Z" fill="url(#paint11_linear)"/>
<path d="M224.747 359L284 332.316C284 332.316 269.926 313.764 244.353 324.168C241.974 325.278 239.71 326.621 237.595 328.176C232.081 332.443 221.035 342.558 224.747 359Z" fill="url(#paint12_linear)"/>
<path d="M93.9988 369C93.9988 369 94.4263 377.351 79 381L93.9988 369Z" fill="url(#paint13_linear)"/>
<path d="M287.727 358C287.727 358 290.703 365.902 277 374L287.727 358Z" fill="url(#paint14_linear)"/>
<path d="M130.828 413.526L128.948 413.474L119.179 413.579C119.179 413.579 117.037 423.684 115.888 427.895C115.836 428.158 115.575 428.842 115.47 429.368C115.313 430.105 115.261 430.842 115.261 431.579C115.47 435.421 116.881 438.632 120.276 440.368C123.985 442.263 126.858 444 130.828 440.368C134.798 436.737 135.321 434.421 133.806 428.105C132.291 421.789 131.769 413.737 130.828 413.526Z" fill="#4B44BE"/>
<path d="M171.731 426.105C164.992 423.947 160.5 414.737 160.5 414.737L149.007 414.053C149.007 414.053 148.381 423.421 148.067 428.158C147.649 434.474 148.694 437.263 152.821 436.947C158.254 436.526 180.351 438.526 183.851 436.263C188.395 433.316 178 428.105 171.731 426.105Z" fill="#4B44BE"/>
<path d="M103 247.105V260.869L119.565 412.639H131.285C131.285 412.639 135.348 308.546 135.348 304.935C135.348 301.323 136.39 290.019 136.39 290.019C136.39 290.019 151.131 332.777 151.392 336.335C151.652 339.894 148.996 413.529 148.996 413.529L160.716 414C160.716 414 170.978 364.177 170.978 359.467C170.978 354.757 174.468 330.264 173.947 325.554C173.426 320.844 164.727 247.471 164.727 247.471L146.756 247L103 247.105Z" fill="url(#paint15_linear)"/>
<path d="M179.053 231.376L178.895 231.167C178.948 231.324 179 231.429 179.053 231.376ZM144.4 218.02L137.795 220.744L137.428 229.857L144.715 232.738C144.715 232.686 152.683 232.424 152.683 232.371C152.736 232.005 155.829 232.11 157.244 233L181.936 224.515L182.827 218.596C182.827 218.596 184.662 226.034 176.379 211.054L144.4 218.02ZM173.915 187.956L173.391 184.97L172.133 184.761L173.915 187.956ZM128.254 108.604C125.213 109.861 123.745 114.313 123.745 114.313C123.745 114.313 122.277 113.423 122.277 115.937C122.277 118.451 123.536 124.108 124.427 125.575C125.999 128.036 127.415 130.55 128.673 133.169C129.879 135.788 129.459 141.131 128.201 141.916C126.943 142.702 104.506 162.815 104.506 162.815L86 219.591V221.844L88.8309 222.839L91.7666 225.353C92.0288 225.405 95.7509 227.448 96.2751 227.815C99.2108 229.281 102.356 230.381 105.554 231.114C107.651 231.533 116.93 231.324 116.93 231.324L126.314 231.114L124.689 219.172L110.797 219.015L91.8191 218.073L111.059 173.866L171.766 184.708C160.966 165.224 148.856 143.33 147.808 141.026C146.917 139.14 147.86 134.636 148.385 132.279C148.856 130.131 149.905 127.512 150.901 126.727C151.897 125.941 153.679 122.484 153.679 120.965C153.679 119.446 154.099 113.528 152.841 114.785C152.474 115.151 151.006 112.899 150.481 110.647C149.643 107.4 147.388 105.095 144.767 103C144.767 103 131.399 107.4 128.411 108.657" fill="url(#paint16_linear)"/>
<path d="M104.759 149.879C101.838 151.875 99.1262 154.553 98.1352 158.019C97.1443 161.485 90.1036 188.478 89.1649 191.891C86.8701 200.241 85.5141 202.656 82.8022 212.477C79.4644 224.555 87.1309 226.393 94.9539 228.178C103.09 230.016 103.142 230.804 105.072 230.804C105.385 230.804 115.033 232.8 115.346 227.286C115.554 223.82 114.929 218.306 113.625 218.463C110.652 218.883 101.056 216.31 100.586 215.995C99.9606 215.575 102.673 208.013 104.237 203.339C105.385 199.873 109.818 185.484 110.809 182.806C111.33 181.336 108.305 196.775 106.48 211.899C106.428 212.477 105.697 218.358 105.906 218.358C108.097 218.358 114.094 218.463 115.972 218.673C124.421 219.671 126.037 223.715 125.516 226.971C124.577 232.642 104.029 230.016 104.133 230.752C104.133 230.752 100.586 246.821 102.568 247.819C104.289 248.712 127.341 258.374 132.244 260.265C132.765 260.475 133.391 260.212 133.6 259.635C133.6 259.635 133.6 259.635 133.6 259.582L136.729 250.55C136.781 250.445 136.885 250.392 136.989 250.445C137.042 250.445 137.094 250.497 137.094 250.55L140.067 260.422C140.119 260.685 140.327 260.895 140.536 261H141.84L167.447 255.433C167.447 255.433 167.343 245.246 167.291 232.222C167.291 230.909 167.082 226.078 166.143 226.971C165.204 227.863 143.822 230.699 141.475 229.701C136.52 227.601 137.824 222.402 139.545 220.249C141.527 217.781 166.769 216.573 166.873 214.735C167.291 206.753 166.665 185.799 166.247 188.32C165.622 192.259 150.862 213.789 150.862 217.518C150.862 221.247 150.601 230.699 150.601 230.699L174.853 228.809C174.853 228.809 182.989 225.973 183.719 221.247C184.449 216.52 183.562 214.42 183.249 207.383C183.041 202.919 176.782 176.084 175.009 168.47C174.748 167.314 174.592 166.159 174.488 165.004C174.279 161.853 173.027 154.501 166.3 151.297C157.955 147.306 151.436 144.155 149.767 144.155C148.202 144.155 143.926 153.608 141.683 156.286C140.692 157.494 140.901 158.072 139.597 159.857C138.919 160.802 137.667 160.96 136.729 160.33C136.52 160.172 136.364 159.962 136.207 159.752C135.477 158.702 134.851 157.547 134.277 156.391C133.287 154.396 125.62 143 125.62 143C125.62 143 107.679 147.831 104.759 149.879Z" fill="url(#paint17_linear)"/>
<path d="M144.237 102.443C144.237 102.443 127.839 108.614 126.69 109.51C125.541 110.407 123.348 113.783 123.348 113.783C123.348 113.783 122.199 113.15 121.938 114.89C121.938 114.89 120.267 111.409 120.058 109.458C119.849 107.506 120.058 102.495 123.191 99.1726C126.325 95.8497 132.644 91.472 136.56 92.0522C140.477 92.6324 142.148 93.1071 144.602 95.586C147.057 98.065 149.146 98.8034 149.877 99.1726C150.608 99.5418 153.428 101.599 153.898 105.449C154.368 109.299 153.062 117 153.062 117C153.062 117 153.428 113.994 152.227 114.943C151.391 115.576 150.19 112.833 149.825 111.198C149.355 109.616 145.125 102.865 144.237 102.443Z" fill="url(#paint18_linear)"/>
<g opacity="0.07">
<g opacity="0.07">
<path opacity="0.07" d="M150.165 144.403C150.061 144.086 151.939 145.511 149.748 143.928C146.67 141.658 148.13 132.369 148.13 132.369C146.983 134.797 145 136.697 142.548 137.647C138.635 139.125 137.435 138.017 143.487 141.553C149.435 145.036 146.357 146.25 145.939 150.842" fill="black"/>
</g>
</g>
<g opacity="0.07">
<g opacity="0.07">
<path opacity="0.07" d="M161.898 177.185L170 208.181C170 208.181 169.948 213.688 168.338 214.527C166.728 215.366 161.638 215.89 160.443 216.415C159.249 216.939 146.836 219.562 150.056 215.156C150.783 214.16 167.611 208.233 160.08 201.992C152.549 195.751 153.899 187.097 157.535 181.119C161.171 175.14 160.391 170.052 160.391 170.052L161.898 177.185Z" fill="black"/>
</g>
</g>
<g opacity="0.07">
<g opacity="0.07">
<path opacity="0.07" d="M127.567 258.896C127.567 258.896 120.555 296.448 124.191 311.447C129.696 334.209 121.75 364.995 121.75 379.785C121.75 389.382 125.489 415.92 125.749 426.724C125.801 429.976 128.138 436.269 126.424 437.738C125.697 438.367 121.23 436.899 118.789 435.745C117.491 435.115 116.764 433.752 116.919 432.388L118.374 425.99L120.451 417.494L105.909 280.085C105.909 280.085 101.234 249.508 103.883 249.403C106.532 249.299 127.619 258.896 127.567 258.896Z" fill="black"/>
</g>
</g>
<path d="M120.919 208.391L148.394 211.852C148.965 212.009 149.329 212.534 149.277 213.163L148.498 238.232C148.446 239.019 147.978 240.068 147.251 239.858L119.932 234.561C119.412 234.404 119.049 233.932 119.049 233.355L118.945 230.628L121.957 229.841C122.736 229.631 123.464 229.212 124.087 228.74C124.243 228.635 124.347 228.53 124.45 228.373L125.074 227.429C125.281 227.166 125.333 226.799 125.281 226.432C125.178 225.855 125.022 225.068 124.918 224.649C124.866 224.492 124.814 224.334 124.762 224.229L124.087 222.761C123.775 222.079 123.256 221.555 122.581 221.24L122.165 221.03L119.205 219.404L119.464 209.597C119.464 208.915 120.036 208.391 120.711 208.391C120.815 208.391 120.867 208.391 120.919 208.391Z" fill="white"/>
<path d="M386.747 82.3492C384.603 82.3492 382.462 82.563 380.361 82.9891C378.776 75.0613 373.652 68.2986 366.458 64.6382C359.265 60.9778 350.794 60.8242 343.472 64.2206C336.846 45.9285 316.68 36.484 298.429 43.1248C280.178 49.7655 270.755 69.9789 277.38 88.2696C261.393 88.7761 248.764 102.039 249.003 118.068C249.244 134.099 262.265 146.974 278.261 147H386.747C404.559 147 419 132.528 419 114.675C419 96.8216 404.559 82.3492 386.747 82.3492Z" fill="white"/>
<path d="M354.979 74.9218C347.759 67.9425 338.259 64 328.142 64C299.104 64 280.871 95.4608 295.371 120.487L290 140L310.061 134.769C318.8 139.49 325.96 139.072 328.161 139.351C361.832 139.351 378.593 98.6148 354.932 75.0453L354.979 74.9218Z" fill="#ECEFF1"/>
<path d="M327.369 133.033L327.35 133.03H327.299C317.158 133.03 310.679 128.303 310.041 128.03L298.09 131.088L301.293 119.654L300.531 118.478C297.376 113.534 295.7 107.84 295.7 101.977C295.7 74.3935 329.944 60.6001 349.76 80.0965C369.529 99.3891 355.65 133.033 327.369 133.033Z" fill="#4CAF50"/>
<path d="M345.048 108.994L345.02 109.227C344.062 108.761 339.398 106.532 338.53 106.224C336.58 105.519 337.13 106.113 333.386 110.303C332.829 110.909 332.276 110.956 331.331 110.536C330.376 110.07 327.313 109.091 323.686 105.92C320.861 103.449 318.965 100.418 318.405 99.4851C317.473 97.9122 319.423 97.6883 321.199 94.4057C321.517 93.7529 321.354 93.24 321.119 92.7768C320.88 92.3105 318.981 87.7409 318.186 85.9193C317.422 84.1039 316.637 84.3339 316.048 84.3339C314.216 84.1785 312.876 84.2033 311.696 85.4033C306.562 90.9179 307.856 96.6066 312.25 102.656C320.884 113.697 325.484 115.731 333.895 118.553C336.166 119.259 338.237 119.159 339.876 118.929C341.702 118.646 345.497 116.688 346.289 114.496C347.1 112.305 347.1 110.486 346.862 110.067C346.626 109.647 346.003 109.414 345.048 108.994Z" fill="#FAFAFA"/>
</g>
<defs>
<linearGradient id="paint0_linear" x1="547" y1="89" x2="95" y2="541" gradientUnits="userSpaceOnUse">
<stop stop-color="#32C5FF"/>
<stop offset="0.512584" stop-color="#B620E0"/>
<stop offset="1" stop-color="#F7B500"/>
</linearGradient>
<linearGradient id="paint1_linear" x1="490.001" y1="339.495" x2="609.995" y2="339.495" gradientUnits="userSpaceOnUse">
<stop stop-color="#CD94EF"/>
<stop offset="1" stop-color="#7A5BF5"/>
</linearGradient>
<linearGradient id="paint2_linear" x1="480" y1="320" x2="554" y2="320" gradientUnits="userSpaceOnUse">
<stop stop-color="#4F68CA"/>
<stop offset="1" stop-color="#5ACEED"/>
</linearGradient>
<linearGradient id="paint3_linear" x1="489" y1="172" x2="566" y2="172" gradientUnits="userSpaceOnUse">
<stop stop-color="#F87B58"/>
<stop offset="0.5" stop-color="#F8C548"/>
<stop offset="1" stop-color="#F89C51"/>
</linearGradient>
<linearGradient id="paint4_linear" x1="466" y1="195.5" x2="558" y2="195.5" gradientUnits="userSpaceOnUse">
<stop stop-color="#E1A1ED"/>
<stop offset="1" stop-color="#7658F4"/>
</linearGradient>
<linearGradient id="paint5_linear" x1="479" y1="131.5" x2="550" y2="131.5" gradientUnits="userSpaceOnUse">
<stop stop-color="#4B44BE"/>
<stop offset="1" stop-color="#5BD3EF"/>
</linearGradient>
<linearGradient id="paint6_linear" x1="229.691" y1="246.118" x2="234.276" y2="249.769" gradientUnits="userSpaceOnUse">
<stop stop-color="#CD94EF"/>
<stop offset="1" stop-color="#7A5BF5"/>
</linearGradient>
<linearGradient id="paint7_linear" x1="63.6389" y1="291.198" x2="212.988" y2="377.531" gradientUnits="userSpaceOnUse">
<stop stop-color="#CD94EF"/>
<stop offset="1" stop-color="#7A5BF5"/>
</linearGradient>
<linearGradient id="paint8_linear" x1="34" y1="356" x2="102" y2="356" gradientUnits="userSpaceOnUse">
<stop stop-color="#CD94EF"/>
<stop offset="1" stop-color="#7A5BF5"/>
</linearGradient>
<linearGradient id="paint9_linear" x1="224.995" y1="356" x2="293" y2="356" gradientUnits="userSpaceOnUse">
<stop stop-color="#CD94EF"/>
<stop offset="1" stop-color="#7A5BF5"/>
</linearGradient>
<linearGradient id="paint10_linear" x1="77" y1="280.498" x2="153" y2="280.498" gradientUnits="userSpaceOnUse">
<stop stop-color="#CD94EF"/>
<stop offset="1" stop-color="#7A5BF5"/>
</linearGradient>
<linearGradient id="paint11_linear" x1="12" y1="334.999" x2="121.001" y2="334.999" gradientUnits="userSpaceOnUse">
<stop stop-color="white"/>
<stop offset="1" stop-color="white" stop-opacity="0"/>
</linearGradient>
<linearGradient id="paint12_linear" x1="224" y1="339.999" x2="284" y2="339.999" gradientUnits="userSpaceOnUse">
<stop stop-color="white"/>
<stop offset="1" stop-color="white" stop-opacity="0"/>
</linearGradient>
<linearGradient id="paint13_linear" x1="101.26" y1="375.842" x2="76.1186" y2="374.676" gradientUnits="userSpaceOnUse">
<stop stop-color="white" stop-opacity="0"/>
<stop offset="1" stop-color="white"/>
</linearGradient>
<linearGradient id="paint14_linear" x1="289.328" y1="362.234" x2="276.952" y2="365.437" gradientUnits="userSpaceOnUse">
<stop stop-color="white" stop-opacity="0"/>
<stop offset="1" stop-color="white"/>
</linearGradient>
<linearGradient id="paint15_linear" x1="102.99" y1="330.581" x2="173.951" y2="330.581" gradientUnits="userSpaceOnUse">
<stop stop-color="#4F68CA"/>
<stop offset="1" stop-color="#5ACEED"/>
</linearGradient>
<linearGradient id="paint16_linear" x1="86.021" y1="168.018" x2="182.997" y2="168.018" gradientUnits="userSpaceOnUse">
<stop stop-color="#F87B58"/>
<stop offset="0.41" stop-color="#F89453"/>
<stop offset="0.71" stop-color="#F8C548"/>
<stop offset="1" stop-color="#F89C51"/>
</linearGradient>
<linearGradient id="paint17_linear" x1="81.989" y1="202.063" x2="183.994" y2="202.063" gradientUnits="userSpaceOnUse">
<stop stop-color="#E1A1ED"/>
<stop offset="1" stop-color="#7658F4"/>
</linearGradient>
<linearGradient id="paint18_linear" x1="119.968" y1="104.506" x2="153.962" y2="104.506" gradientUnits="userSpaceOnUse">
<stop stop-color="#5ACEED"/>
<stop offset="0.55" stop-color="#4F68CA"/>
<stop offset="1" stop-color="#5282D3"/>
</linearGradient>
<clipPath id="clip0">
<rect width="703" height="443" fill="white"/>
</clipPath>
</defs>
</svg>
